<?xml version="1.0" standalone="no"?><!-- Generator: Gravit.io --><svg xmlns="http://www.w3.org/2000/svg" xmlns:xlink="http://www.w3.org/1999/xlink" style="isolation:isolate" viewBox="0 0 36 36" width="36" height="36"><g><g><path d=" M 2 18 C 2 9.169 9.169 2 18 2 C 26.831 2 34 9.169 34 18 C 34 26.831 26.831 34 18 34 C 9.169 34 2 26.831 2 18 Z  M 7 18 C 7 12.481 12.481 7 18 7 C 23.519 7 29 12.481 29 18 C 29 23.519 23.519 29 18 29 C 12.481 29 7 23.519 7 18 Z " fill-rule="evenodd" fill="rgb(47,49,49)"/></g></g><rect x="0" y="0" width="36" height="36" transform="matrix(1,0,0,1,0,0)" fill="none"/></svg>