<?xml version="1.0" standalone="no"?><!-- Generator: Gravit.io --><svg xmlns="http://www.w3.org/2000/svg" xmlns:xlink="http://www.w3.org/1999/xlink" style="isolation:isolate" viewBox="0 0 36 36" width="36" height="36"><defs><clipPath id="_clipPath_ZdQhzj83Z2JDDF3cZBOD5qJwmsApH0cl"><rect width="36" height="36"/></clipPath></defs><g clip-path="url(#_clipPath_ZdQhzj83Z2JDDF3cZBOD5qJwmsApH0cl)"><clipPath id="_clipPath_vV7i0Jm5D1MxGCPd3uP090fUPc1qy3PI"><rect x="0" y="0" width="36" height="36" transform="matrix(1,0,0,1,0,0)" fill="rgb(255,255,255)"/></clipPath><g clip-path="url(#_clipPath_vV7i0Jm5D1MxGCPd3uP090fUPc1qy3PI)"><g><path d=" M 2 18 C 2 9.169 9.169 2 18 2 C 26.831 2 34 9.169 34 18 C 34 26.831 26.831 34 18 34 C 9.169 34 2 26.831 2 18 Z  M 8 18 C 8 12.481 12.481 8 18 8 C 23.519 8 28 12.481 28 18 C 28 23.519 23.519 28 18 28 C 12.481 28 8 23.519 8 18 Z " fill-rule="evenodd" fill="rgb(47,49,49)"/></g></g></g></svg>