<?xml version="1.0" standalone="no"?><!-- Generator: Gravit.io --><svg xmlns="http://www.w3.org/2000/svg" xmlns:xlink="http://www.w3.org/1999/xlink" style="isolation:isolate" viewBox="0 0 36 36" width="36" height="36"><defs><clipPath id="_clipPath_P4ZpB3jcxSlTvFBYBvcOYGrtRnTX69JX"><rect width="36" height="36"/></clipPath></defs><g clip-path="url(#_clipPath_P4ZpB3jcxSlTvFBYBvcOYGrtRnTX69JX)"><g><path d="M 32.287 3.725 L 32.287 3.725 C 33.765 5.202 33.765 7.601 32.287 9.078 L 9.071 32.275 C 7.593 33.752 5.192 33.752 3.713 32.275 L 3.713 32.275 C 2.235 30.798 2.235 28.399 3.713 26.922 L 26.929 3.725 C 28.407 2.248 30.808 2.248 32.287 3.725 Z" style="stroke:none;fill:#B4B4B4;stroke-miterlimit:10;"/><path d="M 3.713 3.725 L 3.713 3.725 C 5.192 2.248 7.593 2.248 9.071 3.725 L 32.287 26.922 C 33.765 28.399 33.765 30.798 32.287 32.275 L 32.287 32.275 C 30.808 33.752 28.407 33.752 26.929 32.275 L 3.713 9.078 C 2.235 7.601 2.235 5.202 3.713 3.725 Z" style="stroke:none;fill:#B4B4B4;stroke-miterlimit:10;"/></g></g></svg>